<svg width="9" height="14" viewBox="0 0 9 14" fill="none" xmlns="http://www.w3.org/2000/svg">
  <path
    d="M3.03393 12.9231L8.2524 7.64308C8.36775 7.52866 8.45932 7.39254 8.5218 7.24256C8.58428 7.09258 8.61646 6.93171 8.61646 6.76923C8.61646 6.60676 8.58428 6.44589 8.5218 6.29591C8.45932 6.14593 8.36775 6.0098 8.2524 5.89539L3.03393 0.676926C2.91952 0.561568 2.78339 0.470005 2.63341 0.407521C2.48343 0.345036 2.32256 0.312866 2.16009 0.312866C1.99761 0.312866 1.83674 0.345036 1.68676 0.407521C1.53678 0.470005 1.40066 0.561568 1.28624 0.676926C1.05701 0.907526 0.928343 1.21947 0.928343 1.54462C0.928343 1.86977 1.05701 2.18171 1.28624 2.41231L5.64316 6.76923L1.28624 11.1262C1.05886 11.3554 0.930678 11.6648 0.929318 11.9877C0.928382 12.1497 0.959427 12.3102 1.02068 12.4602C1.08192 12.6101 1.17217 12.7465 1.28624 12.8615C1.39654 12.981 1.52942 13.0775 1.67721 13.1453C1.82499 13.2131 1.98475 13.251 2.14726 13.2567C2.30976 13.2624 2.47179 13.2359 2.62398 13.1786C2.77617 13.1214 2.9155 13.0345 3.03393 12.9231Z"
    fill="#9FBCD1" />
</svg>