<svg width="27" height="27" viewBox="0 0 27 27" fill="none" xmlns="http://www.w3.org/2000/svg">
  <path
    d="M25.2154 19.7387L22.5416 17.0004C21.9665 16.4537 21.241 16.0915 20.4584 15.9603C19.6759 15.8291 18.8719 15.9349 18.1499 16.2642L16.9874 15.1017C18.3573 13.2713 18.9829 10.9899 18.7384 8.71673C18.4938 6.4436 17.3971 4.34752 15.6692 2.85045C13.9413 1.35338 11.7104 0.566471 9.4256 0.64814C7.14081 0.729809 4.97178 1.67399 3.35516 3.29061C1.73853 4.90723 0.794354 7.07626 0.712685 9.36105C0.631016 11.6458 1.41792 13.8767 2.915 15.6047C4.41207 17.3326 6.50815 18.4292 8.78128 18.6738C11.0544 18.9184 13.3358 18.2928 15.1662 16.9229L16.3158 18.0725C15.9478 18.7953 15.8159 19.6155 15.9387 20.4173C16.0615 21.2191 16.4329 21.9621 17.0004 22.5417L19.7387 25.28C20.4653 26.0056 21.4502 26.4132 22.477 26.4132C23.5039 26.4132 24.4888 26.0056 25.2154 25.28C25.5844 24.9191 25.8777 24.4881 26.0779 24.0123C26.2781 23.5365 26.3813 23.0256 26.3813 22.5094C26.3813 21.9932 26.2781 21.4822 26.0779 21.0064C25.8777 20.5306 25.5844 20.0996 25.2154 19.7387V19.7387ZM14.262 14.2621C13.3582 15.1636 12.2074 15.7771 10.955 16.025C9.70268 16.2729 8.40496 16.144 7.22581 15.6547C6.04665 15.1654 5.03896 14.3376 4.33003 13.2759C3.6211 12.2142 3.24274 10.9662 3.24274 9.68957C3.24274 8.41293 3.6211 7.16492 4.33003 6.10321C5.03896 5.04149 6.04665 4.21371 7.22581 3.72441C8.40496 3.23511 9.70268 3.10627 10.955 3.35414C12.2074 3.60201 13.3582 4.21549 14.262 5.11707C14.8635 5.71699 15.3406 6.42968 15.6662 7.2143C15.9918 7.99893 16.1594 8.84007 16.1594 9.68957C16.1594 10.5391 15.9918 11.3802 15.6662 12.1648C15.3406 12.9495 14.8635 13.6621 14.262 14.2621V14.2621ZM23.3941 23.3942C23.274 23.5152 23.1312 23.6113 22.9738 23.6769C22.8164 23.7425 22.6475 23.7762 22.477 23.7762C22.3065 23.7762 22.1377 23.7425 21.9803 23.6769C21.8229 23.6113 21.68 23.5152 21.5599 23.3942L18.8216 20.6558C18.7005 20.5357 18.6045 20.3929 18.5389 20.2355C18.4733 20.0781 18.4395 19.9093 18.4395 19.7387C18.4395 19.5682 18.4733 19.3994 18.5389 19.242C18.6045 19.0846 18.7005 18.9417 18.8216 18.8217C18.9417 18.7006 19.0845 18.6045 19.242 18.5389C19.3994 18.4733 19.5682 18.4396 19.7387 18.4396C19.9092 18.4396 20.078 18.4733 20.2354 18.5389C20.3928 18.6045 20.5357 18.7006 20.6558 18.8217L23.3941 21.56C23.5152 21.6801 23.6113 21.8229 23.6768 21.9803C23.7424 22.1377 23.7762 22.3066 23.7762 22.4771C23.7762 22.6476 23.7424 22.8164 23.6768 22.9738C23.6113 23.1312 23.5152 23.2741 23.3941 23.3942V23.3942Z"
    fill="#01243A" />
</svg>