<svg width="38" height="39" viewBox="0 0 38 39" fill="none" xmlns="http://www.w3.org/2000/svg">
  <path d="M33.1216 17.3112C32.6237 17.0351 28.3546 14.4928 26.7527 13.5359L26.7481 13.5327L7.34453 2.03559C7.01396 1.82849 6.6433 1.69802 6.25846 1.6533C5.87363 1.60859 5.48392 1.65072 5.11661 1.77673C5.07516 1.79201 5.03621 1.80738 4.99591 1.82631C4.90235 1.85761 4.81089 1.89518 4.72214 1.93879C4.35114 2.16638 4.04677 2.49239 3.84106 2.88252C3.63535 3.27265 3.53591 3.71248 3.55319 4.15571V35.0069C3.54142 35.4198 3.63671 35.8286 3.82932 36.1913C4.02194 36.5541 4.30496 36.8578 4.64946 37.0715C4.72892 37.1113 4.81078 37.1459 4.89455 37.175C4.94035 37.1967 4.98402 37.2157 5.03128 37.2328C5.25803 37.3171 5.49684 37.3624 5.738 37.3666C6.20112 37.3615 6.65482 37.2318 7.05385 36.9905C7.66924 36.624 26.7481 25.3188 26.7481 25.3188L33.1139 21.5467C33.5075 21.3443 33.8397 21.0354 34.0746 20.6534C34.3095 20.2713 34.4382 19.8306 34.4468 19.3789C34.4274 18.9439 34.2941 18.5222 34.0609 18.1583C33.8277 17.7944 33.5032 17.5018 33.1216 17.3112V17.3112ZM6.71986 32.2385V6.66561L19.2917 19.4366L6.71986 32.2385ZM14.665 28.7257L21.5423 21.7227L23.3624 23.5716C21.36 24.7583 17.9769 26.7632 14.665 28.7258V28.7257ZM21.5395 17.1476L14.5762 10.074L23.3695 15.2842L21.5395 17.1476ZM26.2053 21.8872L23.7901 19.4338L26.209 16.9706C27.3494 17.6503 29.1268 18.7083 30.3508 19.4313L26.2053 21.8872Z" fill="white"/>
  </svg>
  