<svg width="41" height="40" viewBox="0 0 41 40" fill="none" xmlns="http://www.w3.org/2000/svg">
  <path d="M32.4584 3.33325H8.54175C7.18251 3.33325 5.87895 3.86004 4.91783 4.79772C3.9567 5.7354 3.41675 7.00717 3.41675 8.33325V24.9999C3.41675 26.326 3.9567 27.5978 4.91783 28.5355C5.87895 29.4731 7.18251 29.9999 8.54175 29.9999H13.6667V33.3333H8.54175C8.08867 33.3333 7.65415 33.5088 7.33377 33.8214C7.0134 34.134 6.83341 34.5579 6.83341 34.9999C6.83341 35.4419 7.0134 35.8659 7.33377 36.1784C7.65415 36.491 8.08867 36.6666 8.54175 36.6666H32.4584C32.9115 36.6666 33.346 36.491 33.6664 36.1784C33.9868 35.8659 34.1667 35.4419 34.1667 34.9999C34.1667 34.5579 33.9868 34.134 33.6664 33.8214C33.346 33.5088 32.9115 33.3333 32.4584 33.3333H27.3334V29.9999H32.4584C33.8176 29.9999 35.1212 29.4731 36.0823 28.5355C37.0435 27.5978 37.5834 26.326 37.5834 24.9999V8.33325C37.5834 7.00717 37.0435 5.7354 36.0823 4.79772C35.1212 3.86004 33.8176 3.33325 32.4584 3.33325ZM23.9167 33.3333H17.0834V29.9999H23.9167V33.3333ZM34.1667 24.9999C34.1667 25.4419 33.9868 25.8659 33.6664 26.1784C33.346 26.491 32.9115 26.6666 32.4584 26.6666H8.54175C8.08867 26.6666 7.65415 26.491 7.33377 26.1784C7.0134 25.8659 6.83341 25.4419 6.83341 24.9999V23.3333H34.1667V24.9999ZM34.1667 19.9999H6.83341V8.33325C6.83341 7.89122 7.0134 7.4673 7.33377 7.15474C7.65415 6.84218 8.08867 6.66659 8.54175 6.66659H32.4584C32.9115 6.66659 33.346 6.84218 33.6664 7.15474C33.9868 7.4673 34.1667 7.89122 34.1667 8.33325V19.9999Z" fill="white"/>
  </svg>
  