<svg width="30" height="30" viewBox="0 0 30 30" fill="none" xmlns="http://www.w3.org/2000/svg">
  <path d="M23.7476 4.8667H6.59057C5.6155 4.8667 4.68037 5.25124 3.99089 5.93572C3.30141 6.6202 2.91406 7.54856 2.91406 8.51657V20.6828C2.91406 21.6508 3.30141 22.5792 3.99089 23.2636C4.68037 23.9481 5.6155 24.3327 6.59057 24.3327H23.7476C24.7227 24.3327 25.6578 23.9481 26.3473 23.2636C27.0368 22.5792 27.4241 21.6508 27.4241 20.6828V8.51657C27.4241 7.54856 27.0368 6.6202 26.3473 5.93572C25.6578 5.25124 24.7227 4.8667 23.7476 4.8667ZM23.2452 7.29994L16.0392 14.4537C15.9253 14.5677 15.7897 14.6582 15.6404 14.72C15.4911 14.7818 15.3309 14.8136 15.1691 14.8136C15.0073 14.8136 14.8471 14.7818 14.6978 14.72C14.5485 14.6582 14.4129 14.5677 14.299 14.4537L7.09303 7.29994H23.2452ZM24.9731 20.6828C24.9731 21.0055 24.844 21.3149 24.6142 21.5431C24.3843 21.7712 24.0726 21.8994 23.7476 21.8994H6.59057C6.26555 21.8994 5.95384 21.7712 5.72401 21.5431C5.49418 21.3149 5.36507 21.0055 5.36507 20.6828V9.01538L12.571 16.1691C13.2604 16.8526 14.1948 17.2365 15.1691 17.2365C16.1434 17.2365 17.0778 16.8526 17.7672 16.1691L24.9731 9.01538V20.6828Z" fill="white"/>
  </svg>
  