<svg width="30" height="30" viewBox="0 0 30 30" fill="none" xmlns="http://www.w3.org/2000/svg">
  <path d="M25.6131 2.43311H3.7991C3.44158 2.43311 3.09869 2.5741 2.84589 2.82508C2.59308 3.07606 2.45105 3.41645 2.45105 3.77139V25.4273C2.45105 25.603 2.48592 25.777 2.55366 25.9394C2.62141 26.1018 2.72071 26.2493 2.84589 26.3736C2.97106 26.4979 3.11967 26.5964 3.28323 26.6637C3.44678 26.7309 3.62207 26.7656 3.7991 26.7656H15.5394V17.3367H12.3531V13.6869H15.5394V10.9495C15.4734 10.3068 15.5498 9.65756 15.7633 9.04732C15.9768 8.43707 16.3222 7.88059 16.7753 7.41689C17.2284 6.9532 17.7781 6.59352 18.3861 6.36309C18.994 6.13265 19.6453 6.03705 20.2944 6.08297C21.2482 6.07715 22.2016 6.12589 23.1498 6.22897V9.51385H21.2012C19.6571 9.51385 19.363 10.2438 19.363 11.3023V13.6504H23.0395L22.5616 17.3002H19.363V26.7656H25.6131C25.7901 26.7656 25.9654 26.7309 26.1289 26.6637C26.2925 26.5964 26.4411 26.4979 26.5663 26.3736C26.6915 26.2493 26.7907 26.1018 26.8585 25.9394C26.9262 25.777 26.9611 25.603 26.9611 25.4273V3.77139C26.9611 3.59564 26.9262 3.42162 26.8585 3.25925C26.7907 3.09688 26.6915 2.94935 26.5663 2.82508C26.4411 2.70081 26.2925 2.60223 26.1289 2.53498C25.9654 2.46772 25.7901 2.43311 25.6131 2.43311V2.43311Z" fill="white"/>
  </svg>
  