<svg width="25" height="25" viewBox="0 0 25 25" fill="none" xmlns="http://www.w3.org/2000/svg">
  <path
    d="M23.375 17.3333H6.45829C6.13782 17.3333 5.83048 17.206 5.60387 16.9794C5.37727 16.7528 5.24996 16.4455 5.24996 16.125C5.24996 15.8045 5.37727 15.4972 5.60387 15.2706C5.83048 15.044 6.13782 14.9167 6.45829 14.9167H19.0733C19.8812 14.9167 20.6661 14.6468 21.3031 14.1499C21.9402 13.6529 22.3929 12.9574 22.5895 12.1737L24.5833 4.33166C24.6285 4.15332 24.6325 3.967 24.5948 3.78691C24.5571 3.60682 24.4788 3.43771 24.3658 3.29249C24.2483 3.14354 24.0973 3.02436 23.9252 2.94459C23.7531 2.86481 23.5646 2.8267 23.375 2.83332H6.16829C5.919 2.1282 5.45771 1.51745 4.84766 1.08479C4.23762 0.652135 3.50868 0.418758 2.76079 0.416656H1.62496C1.30449 0.416656 0.997145 0.543963 0.770539 0.770569C0.543932 0.997176 0.416626 1.30452 0.416626 1.62499C0.416626 1.94546 0.543932 2.2528 0.770539 2.47941C0.997145 2.70602 1.30449 2.83332 1.62496 2.83332H2.76079C3.03682 2.82528 3.30727 2.91203 3.52712 3.07911C3.74698 3.2462 3.90297 3.48356 3.96913 3.75166L4.04163 4.33166L6.13204 12.5C5.17063 12.5433 4.26579 12.9667 3.61656 13.6771C2.96733 14.3875 2.6269 15.3267 2.67017 16.2881C2.71343 17.2495 3.13684 18.1544 3.84725 18.8036C4.55766 19.4528 5.49688 19.7933 6.45829 19.75H6.67579C6.47706 20.2975 6.41321 20.8849 6.48963 21.4623C6.56604 22.0398 6.78049 22.5903 7.1148 23.0673C7.44912 23.5443 7.89345 23.9337 8.41018 24.2025C8.92691 24.4714 9.50081 24.6117 10.0833 24.6117C10.6658 24.6117 11.2397 24.4714 11.7564 24.2025C12.2731 23.9337 12.7175 23.5443 13.0518 23.0673C13.3861 22.5903 13.6005 22.0398 13.677 21.4623C13.7534 20.8849 13.6895 20.2975 13.4908 19.75H16.3425C16.1437 20.2975 16.0799 20.8849 16.1563 21.4623C16.2327 22.0398 16.4472 22.5903 16.7815 23.0673C17.1158 23.5443 17.5601 23.9337 18.0768 24.2025C18.5936 24.4714 19.1675 24.6117 19.75 24.6117C20.3324 24.6117 20.9063 24.4714 21.4231 24.2025C21.9398 23.9337 22.3841 23.5443 22.7185 23.0673C23.0528 22.5903 23.2672 22.0398 23.3436 21.4623C23.42 20.8849 23.3562 20.2975 23.1575 19.75H23.375C23.6954 19.75 24.0028 19.6227 24.2294 19.3961C24.456 19.1695 24.5833 18.8621 24.5833 18.5417C24.5833 18.2212 24.456 17.9138 24.2294 17.6872C24.0028 17.4606 23.6954 17.3333 23.375 17.3333ZM21.8283 5.24999L20.2454 11.5817C20.1792 11.8498 20.0232 12.0871 19.8034 12.2542C19.5835 12.4213 19.3131 12.508 19.037 12.5H8.60913L6.79663 5.24999H21.8283ZM10.0833 22.1667C9.84431 22.1667 9.61069 22.0958 9.41198 21.963C9.21327 21.8302 9.05839 21.6415 8.96694 21.4207C8.87548 21.1999 8.85155 20.957 8.89818 20.7226C8.9448 20.4882 9.05988 20.2729 9.22887 20.1039C9.39786 19.9349 9.61317 19.8198 9.84756 19.7732C10.082 19.7266 10.3249 19.7505 10.5457 19.842C10.7665 19.9334 10.9552 20.0883 11.088 20.287C11.2208 20.4857 11.2916 20.7193 11.2916 20.9583C11.2916 21.2788 11.1643 21.5861 10.9377 21.8127C10.7111 22.0394 10.4038 22.1667 10.0833 22.1667ZM19.75 22.1667C19.511 22.1667 19.2774 22.0958 19.0786 21.963C18.8799 21.8302 18.7251 21.6415 18.6336 21.4207C18.5421 21.1999 18.5182 20.957 18.5648 20.7226C18.6115 20.4882 18.7265 20.2729 18.8955 20.1039C19.0645 19.9349 19.2798 19.8198 19.5142 19.7732C19.7486 19.7266 19.9916 19.7505 20.2124 19.842C20.4332 19.9334 20.6219 20.0883 20.7547 20.287C20.8874 20.4857 20.9583 20.7193 20.9583 20.9583C20.9583 21.2788 20.831 21.5861 20.6044 21.8127C20.3778 22.0394 20.0704 22.1667 19.75 22.1667Z"
    fill="white" />
</svg>