<svg width="41" height="41" viewBox="0 0 41 41" fill="none" xmlns="http://www.w3.org/2000/svg">
  <path d="M35.0282 26.8953C33.983 26.4483 33.0927 25.7032 32.4684 24.7531C31.8441 23.8031 31.5136 22.6901 31.5181 21.5534C31.5317 20.5386 31.8034 19.5441 32.3078 18.6634C32.8122 17.7828 33.5325 17.0452 34.401 16.5201C34.5974 16.3987 34.7673 16.2387 34.9001 16.0498C35.033 15.8609 35.1262 15.647 35.1741 15.421C35.222 15.1951 35.2235 14.9617 35.1787 14.7352C35.1338 14.5086 35.0435 14.2935 34.9131 14.1028C34.1325 12.9676 33.1147 12.0153 31.9302 11.3116C30.7457 10.608 29.4226 10.1697 28.0523 10.0272C29.3277 8.00305 29.9065 5.61746 29.7005 3.23387C29.6603 2.80105 29.454 2.40064 29.1249 2.11665C28.7958 1.83266 28.3695 1.68717 27.9355 1.71072C25.0022 1.97216 22.283 3.35567 20.3447 5.57282C19.1161 6.99651 18.249 8.69565 17.8173 10.526C16.9252 10.2241 15.9913 10.0642 15.0496 10.0522C13.3062 10.1016 11.6052 10.6006 10.1114 11.5009C8.61762 12.4011 7.3818 13.6721 6.52375 15.1905C3.29893 20.7893 5.2717 29.1791 8.76509 34.2291C10.1664 36.2527 12.2693 39.2907 15.4416 39.2907C15.5042 39.2907 15.5676 39.2907 15.6309 39.2873C16.6938 39.227 17.7344 38.9577 18.6931 38.4948C19.4589 38.1067 20.3037 37.9 21.1622 37.8909C21.9695 37.9007 22.7634 38.0984 23.4811 38.4681C24.5298 38.9643 25.6727 39.23 26.8327 39.2472C30.1009 39.1855 32.0312 36.3661 33.4408 34.3057C34.5531 32.6692 35.4235 30.8807 36.025 28.9955C36.1532 28.5843 36.1219 28.1398 35.9371 27.7506C35.7524 27.3614 35.4279 27.056 35.0282 26.8953V26.8953ZM22.9314 7.80336C23.8287 6.7997 24.953 6.02521 26.2104 5.5445C25.9353 6.8979 25.3266 8.16119 24.4396 9.21974C23.8374 9.94215 23.1049 10.5449 22.28 10.9965L22.275 10.9982C22.2266 11.0183 22.1782 11.0366 22.1298 11.0566C21.8111 11.1818 21.4174 11.3369 21.1138 11.437C21.407 10.0931 22.0318 8.84394 22.9314 7.80336V7.80336ZM30.6214 32.3773C29.2484 34.3826 28.1683 35.8057 26.7702 35.8307C26.0944 35.8286 25.4299 35.6571 24.8374 35.3319C23.6922 34.7739 22.4361 34.4808 21.1622 34.4743C19.844 34.4809 18.5437 34.7801 17.3551 35.3501C16.7773 35.6452 16.1468 35.8232 15.5 35.874H15.4491C14.0603 35.874 12.5663 33.7169 11.5745 32.2838C9.09292 28.697 6.80402 21.55 9.48498 16.8955C10.0472 15.8882 10.8602 15.0435 11.8451 14.4431C12.83 13.8427 13.9534 13.5071 15.1063 13.4689L15.1638 13.4672C16.1364 13.5498 17.086 13.807 17.9674 14.2263C18.1918 14.3147 18.4128 14.4031 18.6322 14.4848C18.6881 14.5082 18.7457 14.5299 18.8041 14.5482C19.412 14.7927 20.0577 14.9299 20.7126 14.9536C21.6398 14.88 22.5455 14.6362 23.3844 14.2346C24.567 13.6606 25.867 13.3699 27.1815 13.3854C28.5874 13.4405 29.9372 13.9523 31.026 14.8435C30.0955 15.7009 29.3546 16.7434 28.8509 17.9042C28.3473 19.0649 28.092 20.3182 28.1015 21.5834V21.5851C28.0919 23.1169 28.4709 24.626 29.2033 25.9714C29.9356 27.3167 30.9973 28.4543 32.2889 29.2777C31.8392 30.3645 31.2805 31.4031 30.6214 32.3773V32.3773Z" fill="white"/>
  </svg>
  