<svg width="30" height="30" viewBox="0 0 31 30" fill="none" xmlns="http://www.w3.org/2000/svg">
  <path d="M27.639 7.05625C26.7178 7.45298 25.7436 7.71525 24.7468 7.83489C25.7985 7.21115 26.5866 6.2299 26.9649 5.07316C25.9766 5.65721 24.8948 6.06871 23.7664 6.28978C23.0121 5.47777 22.0077 4.93725 20.9107 4.753C19.8137 4.56875 18.6861 4.75119 17.7048 5.27169C16.7235 5.7922 15.9439 6.62134 15.4884 7.62908C15.0329 8.63681 14.9272 9.76614 15.1879 10.8399C13.1896 10.7396 11.2349 10.2231 9.45085 9.32387C7.66678 8.42467 6.09321 7.16294 4.83236 5.62063C4.39012 6.38731 4.15774 7.25556 4.15833 8.13904C4.15676 8.95951 4.35958 9.76764 4.74872 10.4915C5.13786 11.2153 5.70126 11.8324 6.38874 12.2877C5.58969 12.2661 4.80771 12.0533 4.10931 11.6672V11.7281C4.1153 12.8777 4.52107 13.9899 5.25799 14.8767C5.99491 15.7634 7.01774 16.3703 8.15347 16.5946C7.71628 16.7267 7.26237 16.7963 6.80542 16.8014C6.4891 16.7977 6.17357 16.7693 5.86178 16.7162C6.1852 17.7051 6.81108 18.5693 7.65233 19.1886C8.49358 19.8079 9.50835 20.1514 10.5555 20.1714C8.7873 21.5526 6.60429 22.3064 4.35441 22.3127C3.94477 22.314 3.53545 22.2897 3.12891 22.2397C5.42602 23.7121 8.10299 24.4938 10.8373 24.4905C12.7242 24.5099 14.5961 24.1559 16.3436 23.4491C18.0912 22.7423 19.6794 21.6969 21.0154 20.374C22.3514 19.0511 23.4085 17.4771 24.1249 15.744C24.8413 14.011 25.2027 12.1536 25.188 10.2803C25.188 10.0735 25.188 9.85448 25.188 9.63549C26.1496 8.92354 26.979 8.05075 27.639 7.05625V7.05625Z" fill="white"/>
  </svg>
  