<svg width="30" height="30" viewBox="0 0 31 30" fill="none" xmlns="http://www.w3.org/2000/svg">
  <path d="M15.4912 8.51622C14.2793 8.51622 13.0946 8.87299 12.087 9.54141C11.0793 10.2098 10.2939 11.1599 9.83015 12.2714C9.36637 13.383 9.24503 14.6061 9.48146 15.7861C9.71789 16.9661 10.3015 18.05 11.1584 18.9007C12.0154 19.7515 13.1072 20.3308 14.2958 20.5656C15.4844 20.8003 16.7165 20.6798 17.8361 20.2194C18.9558 19.759 19.9128 18.9793 20.5861 17.9789C21.2594 16.9786 21.6188 15.8025 21.6188 14.5993C21.6188 12.986 20.9732 11.4387 19.824 10.2979C18.6749 9.15712 17.1164 8.51622 15.4912 8.51622V8.51622ZM15.4912 18.2492C14.7641 18.2492 14.0533 18.0351 13.4487 17.6341C12.8441 17.233 12.3729 16.663 12.0946 15.9961C11.8163 15.3291 11.7435 14.5953 11.8854 13.8873C12.0272 13.1793 12.3774 12.5289 12.8916 12.0185C13.4057 11.508 14.0608 11.1604 14.774 11.0196C15.4872 10.8788 16.2264 10.951 16.8982 11.2273C17.57 11.5035 18.1442 11.9714 18.5481 12.5716C18.9521 13.1718 19.1677 13.8775 19.1677 14.5993C19.1677 15.5673 18.7804 16.4957 18.0909 17.1802C17.4014 17.8647 16.4663 18.2492 15.4912 18.2492ZM21.6188 7.2996C21.3764 7.2996 21.1394 7.37095 20.9379 7.50463C20.7364 7.63832 20.5793 7.82833 20.4865 8.05064C20.3938 8.27295 20.3695 8.51757 20.4168 8.75357C20.4641 8.98957 20.5808 9.20635 20.7522 9.3765C20.9236 9.54665 21.1419 9.66252 21.3797 9.70946C21.6174 9.75641 21.8638 9.73231 22.0877 9.64023C22.3117 9.54815 22.5031 9.39221 22.6377 9.19214C22.7724 8.99207 22.8443 8.75684 22.8443 8.51622C22.8443 8.19355 22.7151 7.8841 22.4853 7.65594C22.2555 7.42778 21.9438 7.2996 21.6188 7.2996ZM27.6727 10.0248C27.6524 8.98513 27.4535 7.95651 27.0845 6.98327C26.7423 6.09765 26.2163 5.29338 25.5407 4.62266C24.8651 3.95194 24.055 3.42978 23.1629 3.09008C22.1825 2.72376 21.1464 2.52626 20.0991 2.5061C18.9104 2.43311 18.5182 2.43311 15.4912 2.43311C12.4642 2.43311 12.0721 2.43311 10.8833 2.5061C9.83606 2.52626 8.79992 2.72376 7.81959 3.09008C6.9275 3.42978 6.11735 3.95194 5.44174 4.62266C4.76613 5.29338 4.24016 6.09765 3.89798 6.98327C3.52898 7.95651 3.33004 8.98513 3.30974 10.0248C3.23621 11.2171 3.23621 11.6064 3.23621 14.5993C3.23621 17.5922 3.23621 17.9815 3.30974 19.1738C3.33004 20.2135 3.52898 21.2422 3.89798 22.2154C4.24016 23.101 4.76613 23.9053 5.44174 24.576C6.11735 25.2467 6.9275 25.7689 7.81959 26.1086C8.79992 26.4749 9.83606 26.6724 10.8833 26.6926C12.1088 26.6926 12.4642 26.7656 15.4912 26.7656C18.5182 26.7656 18.9104 26.7656 20.0991 26.6926C21.1464 26.6724 22.1825 26.4749 23.1629 26.1086C24.055 25.7689 24.8651 25.2467 25.5407 24.576C26.2163 23.9053 26.7423 23.101 27.0845 22.2154C27.4535 21.2422 27.6524 20.2135 27.6727 19.1738C27.6727 17.9572 27.7463 17.5922 27.7463 14.5993C27.7463 11.6064 27.7463 11.2171 27.6727 10.0248ZM25.2217 19.0643C25.2002 19.8364 25.0555 20.6002 24.7928 21.3273C24.5756 21.9019 24.2324 22.4214 23.7879 22.848C23.3607 23.2895 22.8364 23.6268 22.256 23.8335C21.5219 24.1049 20.7474 24.253 19.9643 24.2715C18.8123 24.2715 18.457 24.3323 15.479 24.3323C12.501 24.3323 12.1579 24.3323 11.0059 24.3323C10.224 24.3123 9.45043 24.1685 8.7142 23.9065C8.13535 23.6909 7.61207 23.3501 7.18233 22.9089C6.73766 22.4848 6.3979 21.9643 6.18967 21.3881C5.91737 20.6632 5.76828 19.8985 5.74849 19.1252C5.74849 17.9085 5.74849 17.6044 5.74849 14.6602C5.74849 11.7159 5.74849 11.3631 5.74849 10.1952C5.76961 9.41799 5.91864 8.64948 6.18967 7.92007C6.40114 7.34903 6.74057 6.83317 7.18233 6.41146C7.60951 5.97002 8.13382 5.63272 8.7142 5.426C9.44827 5.15456 10.2228 5.00654 11.0059 4.98801C12.1579 4.86635 12.5133 4.86635 15.4912 4.86635C18.4692 4.86635 18.8246 4.86635 19.9766 4.86635C20.7635 4.88622 21.5419 5.03418 22.2805 5.30433C22.8557 5.51427 23.3754 5.85125 23.8001 6.2898C24.2448 6.71388 24.5846 7.2344 24.7928 7.81058C25.0928 8.55097 25.2627 9.33693 25.2953 10.1343C25.2953 11.3509 25.3565 11.6551 25.3565 14.5993C25.3565 17.5436 25.2953 17.8964 25.2953 19.0643H25.2217Z" fill="white"/>
  </svg>
  