<svg width="30" height="30" viewBox="0 0 31 30" fill="none" xmlns="http://www.w3.org/2000/svg">
  <path d="M25.9786 2.43328H5.2186C4.98524 2.43006 4.75353 2.47251 4.53669 2.5582C4.31986 2.6439 4.12215 2.77116 3.95486 2.93271C3.78757 3.09427 3.65398 3.28696 3.56171 3.49978C3.46945 3.7126 3.42031 3.94137 3.41711 4.17305V25.026C3.42031 25.2576 3.46945 25.4864 3.56171 25.6992C3.65398 25.912 3.78757 26.1047 3.95486 26.2663C4.12215 26.4278 4.31986 26.5551 4.53669 26.6408C4.75353 26.7265 4.98524 26.7689 5.2186 26.7657H25.9786C26.212 26.7689 26.4437 26.7265 26.6605 26.6408C26.8774 26.5551 27.0751 26.4278 27.2424 26.2663C27.4097 26.1047 27.5432 25.912 27.6355 25.6992C27.7278 25.4864 27.7769 25.2576 27.7801 25.026V4.17305C27.7769 3.94137 27.7278 3.7126 27.6355 3.49978C27.5432 3.28696 27.4097 3.09427 27.2424 2.93271C27.0751 2.77116 26.8774 2.6439 26.6605 2.5582C26.4437 2.47251 26.212 2.43006 25.9786 2.43328V2.43328ZM10.8069 22.7995H7.13039V11.8499H10.8069V22.7995ZM8.96864 10.317C8.46161 10.317 7.97534 10.117 7.61681 9.7611C7.25828 9.40517 7.05686 8.92242 7.05686 8.41906C7.05686 7.9157 7.25828 7.43295 7.61681 7.07702C7.97534 6.72109 8.46161 6.52113 8.96864 6.52113C9.23788 6.49081 9.51053 6.5173 9.76874 6.59885C10.027 6.6804 10.2649 6.81517 10.467 6.99435C10.6691 7.17352 10.8308 7.39305 10.9415 7.63857C11.0523 7.88409 11.1095 8.15006 11.1095 8.41906C11.1095 8.68806 11.0523 8.95402 10.9415 9.19954C10.8308 9.44506 10.6691 9.6646 10.467 9.84377C10.2649 10.0229 10.027 10.1577 9.76874 10.2393C9.51053 10.3208 9.23788 10.3473 8.96864 10.317V10.317ZM24.0668 22.7995H20.3903V16.9232C20.3903 15.4511 19.8634 14.49 18.5276 14.49C18.1142 14.493 17.7116 14.6217 17.3742 14.8589C17.0367 15.096 16.7806 15.4301 16.6403 15.8161C16.5444 16.1021 16.5028 16.4032 16.5177 16.7043V22.7874H12.8412C12.8412 22.7874 12.8412 12.8354 12.8412 11.8378H16.5177V13.3829C16.8517 12.8075 17.3375 12.3336 17.9227 12.012C18.5079 11.6904 19.1704 11.5334 19.8389 11.5579C22.2899 11.5579 24.0668 13.1274 24.0668 16.4974V22.7995Z" fill="white"/>
  </svg>
  