<svg width="30" height="30" viewBox="0 0 30 30" fill="none" xmlns="http://www.w3.org/2000/svg">
  <path d="M19.4432 13.5777L13.4383 9.73317C13.252 9.62639 13.0406 9.57018 12.8255 9.57018C12.6104 9.57018 12.3991 9.62639 12.2128 9.73317C12.0311 9.83722 11.8793 9.98582 11.772 10.1648C11.6647 10.3437 11.6055 10.547 11.6 10.7551V18.4442C11.6016 18.661 11.6615 18.8734 11.7736 19.0595C11.8856 19.2456 12.0457 19.3986 12.2373 19.5027C12.4155 19.6068 12.6187 19.6615 12.8255 19.6608C13.0426 19.646 13.2528 19.5792 13.4383 19.4662L19.4432 15.6216C19.6152 15.5113 19.7566 15.36 19.8546 15.1815C19.9525 15.003 20.0038 14.8029 20.0038 14.5997C20.0038 14.3964 19.9525 14.1964 19.8546 14.0178C19.7566 13.8393 19.6152 13.688 19.4432 13.5777ZM14.051 16.2056V12.9937L16.502 14.5997L14.051 16.2056ZM24.3207 5.48716L22.4212 5.24384C17.7165 4.67198 12.9591 4.67198 8.25438 5.24384L6.35485 5.48716C5.4415 5.58584 4.59674 6.01502 3.98188 6.69275C3.36702 7.37047 3.02513 8.24928 3.02148 9.16136V20.038C3.02927 20.9365 3.36525 21.8018 3.96702 22.473C4.56879 23.1443 5.39547 23.5759 6.29358 23.6878L8.19311 23.919C10.5433 24.2025 12.909 24.3407 15.2765 24.3326C17.6445 24.3326 20.0102 24.1863 22.3599 23.8947L24.2595 23.6635C25.1576 23.5516 25.9842 23.1199 26.586 22.4487C27.1878 21.7774 27.5238 20.9122 27.5315 20.0136V9.16136C27.5297 8.2586 27.1964 7.38747 26.5941 6.71113C25.9917 6.03479 25.1617 5.59964 24.2595 5.48716H24.3207ZM25.1418 20.0866C25.1428 20.3931 25.0272 20.6887 24.8182 20.9143C24.6092 21.1398 24.3221 21.2787 24.0143 21.3033L22.1148 21.5344C17.6144 22.0941 13.0612 22.0941 8.56076 21.5344L6.66123 21.3033C6.35349 21.2787 6.06641 21.1398 5.85738 20.9143C5.64835 20.6887 5.53278 20.3931 5.53377 20.0866V9.16136C5.54837 8.85958 5.66925 8.57246 5.8753 8.35011C6.08136 8.12776 6.35951 7.9843 6.66123 7.94474L8.49948 7.66492C13.0004 7.11336 17.5526 7.11336 22.0535 7.66492L23.9531 7.89607C24.2548 7.93563 24.5329 8.0791 24.739 8.30145C24.9451 8.5238 25.0659 8.81091 25.0805 9.1127L25.1418 20.0866Z" fill="white"/>
  </svg>
  